<svg width="741" height="601" viewBox="0 0 741 601" fill="none" xmlns="http://www.w3.org/2000/svg">
<g clip-path="url(#clip0_9_91)">
<path d="M741.84 582.625C742.066 606.04 592.686 608.186 589.84 582.627C589.614 559.214 738.995 557.068 741.84 582.625Z" fill="#E6E6E6"/>
<path d="M623.966 501.341L612.864 507.322L619.929 530.25L631.03 531.247L637.086 518.288L623.966 501.341Z" fill="#9F616A"/>
<path d="M658.28 547.197V558.161L675.437 557.165L675.198 548.134L658.28 547.197Z" fill="#9F616A"/>
<path d="M619.929 369.755L625.984 444.52L645.16 554.174L675.437 550.186L665.345 463.46L669.382 383.711L619.929 369.755Z" fill="#2F2E41"/>
<path d="M700.668 313.931L628.003 314.928L619.929 369.755L669.382 392.683L681.493 436.545L619.929 501.341L644.151 531.247C644.151 531.247 678.465 485.391 703.696 459.473C728.927 433.554 716.816 354.802 716.816 354.802L700.668 313.931Z" fill="#2F2E41"/>
<path d="M657.271 172.377C669.533 172.377 679.474 162.558 679.474 150.446C679.474 138.334 669.533 128.515 657.271 128.515C645.008 128.515 635.067 138.334 635.067 150.446C635.067 162.558 645.008 172.377 657.271 172.377Z" fill="#9F616A"/>
<path d="M649.197 165.399V187.33L664.336 211.255C664.336 211.255 687.548 194.308 682.502 190.32C677.456 186.333 676.446 155.43 676.446 155.43L649.197 165.399Z" fill="#9F616A"/>
<path d="M649.197 183.343L634.058 201.286L640.114 325.893L687.548 324.896L695.622 216.239L685.53 188.327L678.607 179.023L666.354 197.298L649.197 183.343Z" fill="#D0CDE1"/>
<path d="M624.975 248.138L613.873 290.007L624.975 331.875L606.809 355.799L590.661 280.038C590.661 280.038 602.772 218.233 603.781 211.255C604.79 204.277 606.809 203.28 606.809 203.28L614.883 204.277L624.975 248.138Z" fill="#2F2E41"/>
<path d="M705.714 264.087L712.779 277.047L714.798 298.978L710.761 323.899L724.89 346.828L739.019 284.025L723.881 203.279H717.825L705.714 264.087Z" fill="#2F2E41"/>
<path d="M619.929 500.344C619.929 500.344 605.799 504.332 600.753 505.329C595.707 506.325 603.781 525.266 603.781 525.266C603.781 525.266 608.827 551.184 609.836 556.168C610.846 561.153 617.91 578.099 626.993 580.093C636.077 582.087 630.021 545.203 630.021 545.203C630.021 545.203 634.058 533.241 634.058 529.253C634.058 525.266 628.003 527.259 628.003 527.259C611.855 525.266 619.929 500.344 619.929 500.344Z" fill="#2F2E41"/>
<path d="M653.234 577.102C654.243 583.084 652.225 583.084 668.373 585.077C684.521 587.071 680.484 574.112 680.484 574.112C679.808 568.003 678.455 561.985 676.447 556.168C673.419 548.194 657.271 558.162 657.271 558.162C657.271 558.162 652.225 571.121 653.234 577.102Z" fill="#2F2E41"/>
<path d="M676.473 156.127L676.999 164.992C676.999 164.992 683.511 150.446 684.52 135.493C685.53 120.54 668.372 117.55 658.28 116.553C648.188 115.556 631.031 122.534 631.031 130.509C631.031 138.484 649.197 136.49 656.262 134.496C663.326 132.503 666.354 149.449 666.354 149.449L670.391 150.446L676.473 156.127Z" fill="#2F2E41"/>
<path d="M643.24 190.402L649.197 183.343L666.354 197.298L649.197 209.261L643.24 190.402Z" fill="#D0CDE1"/>
<path d="M685.53 188.327L678.465 179.355L666.354 197.298L681.493 208.264L685.53 188.327Z" fill="#D0CDE1"/>
<path d="M621.947 262.094L625.984 299.975L617.91 322.903L612.864 344.834C612.864 344.834 612.864 365.768 633.049 366.765C653.234 367.762 670.391 303.963 670.391 303.963C670.391 303.963 673.419 317.919 675.437 325.894C677.456 333.868 711.77 365.768 711.77 365.768C711.77 365.768 719.844 364.771 726.909 348.821C733.973 332.872 712.779 317.919 712.779 317.919L706.724 296.985L708.742 271.066L722.872 203.28L680.988 181.847L685.53 239.167L670.391 284.025L647.683 184.838L640.114 190.32L607.818 203.28L621.947 262.094Z" fill="#2F2E41"/>
<path d="M223.084 412.871C221.089 412.856 219.07 412.842 217.088 412.781L217.149 410.807C219.111 410.867 221.118 410.894 223.085 410.896C225.061 410.896 227.075 410.864 229.072 410.8L229.137 412.774C227.117 412.838 225.082 412.871 223.084 412.871ZM205.065 412.037C201.084 411.664 197.063 411.16 193.115 410.538L193.43 408.587C197.336 409.203 201.315 409.702 205.254 410.071L205.065 412.037ZM241.158 412.016L240.967 410.05C244.905 409.677 248.883 409.173 252.789 408.552L253.107 410.502C249.159 411.13 245.138 411.639 241.158 412.016ZM181.285 408.284C177.387 407.411 173.464 406.4 169.627 405.28L170.194 403.385C173.99 404.494 177.871 405.493 181.728 406.356L181.285 408.284ZM264.934 408.234L264.489 406.309C268.355 405.438 272.234 404.434 276.019 403.324L276.588 405.218C272.763 406.34 268.841 407.355 264.934 408.234ZM158.189 401.541C154.427 400.176 150.663 398.674 147.002 397.073L147.812 395.268C151.433 396.85 155.156 398.337 158.878 399.687L158.189 401.541ZM288.022 401.464L287.33 399.61C291.029 398.264 294.739 396.778 298.358 395.192L299.169 396.998C295.511 398.601 291.76 400.104 288.022 401.464ZM136.134 391.903C132.594 390.078 129.059 388.11 125.628 386.056L126.665 384.366C130.06 386.4 133.557 388.346 137.06 390.151L136.134 391.903ZM310.007 391.831L309.081 390.08C312.575 388.275 316.065 386.33 319.45 384.297L320.489 385.985C317.066 388.04 313.54 390.006 310.007 391.831ZM115.525 379.557C112.247 377.297 108.997 374.9 105.866 372.434L107.113 370.889C110.211 373.329 113.426 375.7 116.67 377.936L115.525 379.557ZM330.575 379.486L329.429 377.868C332.672 375.629 335.883 373.258 338.973 370.82L340.221 372.364C337.098 374.827 333.853 377.223 330.575 379.486ZM96.688 364.716C93.7241 362.059 90.8101 359.274 88.0283 356.441L89.4639 355.066C92.2163 357.869 95.0996 360.624 98.0327 363.254L96.688 364.716ZM349.39 364.648L348.044 363.186C350.97 360.561 353.851 357.804 356.607 354.994L358.043 356.368C355.258 359.209 352.346 361.994 349.39 364.648ZM79.9209 347.64C77.3257 344.635 74.7954 341.509 72.3994 338.349L74.0005 337.164C76.3711 340.291 78.8745 343.385 81.4424 346.358L79.9209 347.64ZM366.148 347.559L364.627 346.278C367.194 343.302 369.698 340.205 372.068 337.074L373.67 338.256C371.274 341.421 368.744 344.551 366.148 347.559ZM65.4946 328.603C63.3066 325.293 61.2012 321.876 59.2363 318.445L60.9775 317.472C62.9209 320.867 65.0044 324.248 67.1694 327.522L65.4946 328.603ZM380.577 328.495L378.901 327.417C381.067 324.137 383.15 320.749 385.095 317.347L386.837 318.317C384.872 321.757 382.766 325.181 380.577 328.495ZM53.6514 307.913C51.9111 304.358 50.2671 300.704 48.7651 297.052L50.6177 296.309C52.104 299.921 53.7305 303.536 55.4521 307.053L53.6514 307.913ZM392.424 307.759L390.623 306.9C392.344 303.378 393.971 299.753 395.459 296.124L397.313 296.865C395.809 300.533 394.164 304.199 392.424 307.759ZM44.5903 285.889C43.3252 282.137 42.1694 278.299 41.1548 274.481L43.0894 273.979C44.0928 277.756 45.2364 281.553 46.4878 285.264L44.5903 285.889ZM401.479 285.68L399.581 285.058C400.825 281.352 401.965 277.553 402.966 273.769L404.901 274.269C403.889 278.094 402.737 281.933 401.479 285.68ZM38.4717 262.881C37.7075 259.005 37.061 255.053 36.5498 251.134L38.5332 250.882C39.0391 254.759 39.6787 258.669 40.4346 262.503L38.4717 262.881ZM407.57 262.664L405.607 262.29C406.357 258.456 406.993 254.545 407.494 250.664L409.479 250.915C408.972 254.837 408.329 258.79 407.57 262.664ZM35.3936 239.291C35.1372 235.354 35.0049 231.352 35.0005 227.396L37.0005 227.394C37.0049 231.308 37.1357 235.268 37.3896 239.164L35.3936 239.291ZM410.621 239.07L408.625 238.945C408.874 235.053 409 231.093 409 227.178L408.999 226.745H410.999L411 227.171C411 231.135 410.872 235.136 410.621 239.07ZM37.3618 215.626L35.3657 215.505C35.6137 211.559 35.9932 207.574 36.4937 203.658L38.478 203.905C37.9824 207.78 37.6069 211.723 37.3618 215.626ZM408.598 214.978C408.338 211.073 407.948 207.131 407.439 203.261L409.422 203.006C409.937 206.918 410.331 210.902 410.594 214.849L408.598 214.978ZM40.3511 192.279L38.3872 191.906C39.1416 188.029 40.0352 184.124 41.042 180.299L42.9776 180.796C41.9815 184.58 41.0977 188.443 40.3511 192.279ZM405.522 191.642C404.761 187.804 403.862 183.944 402.854 180.168L404.788 179.665C405.808 183.481 406.715 187.383 407.485 191.262L405.522 191.642ZM46.3496 169.504L44.4502 168.884C45.7056 165.131 47.103 161.366 48.6045 157.693L50.459 158.433C48.9736 162.066 47.5913 165.791 46.3496 169.504ZM399.444 168.888C398.188 165.18 396.795 161.466 395.302 157.848L397.153 157.103C398.663 160.759 400.072 164.513 401.341 168.261L399.444 168.888ZM55.2832 147.649L53.4805 146.792C55.2153 143.23 57.0913 139.675 59.0557 136.228L60.7988 137.197C58.855 140.608 56.9995 144.124 55.2832 147.649ZM390.455 147.11C388.732 143.602 386.87 140.099 384.917 136.697L386.657 135.723C388.631 139.161 390.514 142.702 392.254 146.249L390.455 147.11ZM66.9805 127.119L65.3037 126.042C67.4849 122.73 69.8047 119.443 72.1982 116.273L73.8018 117.454C71.4336 120.591 69.1382 123.842 66.9805 127.119ZM378.713 126.654C376.549 123.39 374.247 120.148 371.87 117.02L373.47 115.834C375.872 118.996 378.199 122.273 380.387 125.572L378.713 126.654ZM81.2324 108.242L79.709 106.963C82.2993 103.953 85.0225 100.986 87.8027 98.1446L89.2412 99.5172C86.4902 102.328 83.7959 105.264 81.2324 108.242ZM364.417 107.835C361.846 104.865 359.143 101.938 356.385 99.1352L357.818 97.7587C360.606 100.591 363.338 103.55 365.937 106.551L364.417 107.835ZM97.7944 91.3148L96.4478 89.8545C99.4072 87.1917 102.489 84.5917 105.607 82.1272L106.857 83.6696C103.772 86.108 100.723 88.6806 97.7944 91.3148ZM347.806 90.9565C344.873 88.3343 341.815 85.7695 338.716 83.3339L339.962 81.7877C343.094 84.2498 346.185 86.8416 349.147 89.4923L347.806 90.9565ZM116.393 76.6113L115.246 74.9937C118.518 72.7283 121.909 70.5383 125.323 68.4837L126.364 70.1708C122.986 72.2036 119.631 74.3706 116.393 76.6113ZM329.151 76.2968C325.896 74.0585 322.53 71.8988 319.148 69.8776L320.184 68.1876C323.602 70.2301 327.004 72.4129 330.294 74.6754L329.151 76.2968ZM136.727 64.3756L135.798 62.6258C139.334 60.7941 142.979 59.0511 146.629 57.4455L147.443 59.2503C143.831 60.8385 140.226 62.5631 136.727 64.3756ZM308.747 64.1045C305.235 62.2988 301.616 60.5824 297.989 59.0024L298.797 57.1948C302.462 58.7916 306.121 60.5269 309.671 62.3519L308.747 64.1045ZM158.466 54.819L157.771 52.966C161.521 51.5958 165.367 50.3284 169.201 49.1993L169.772 51.0928C165.979 52.2093 162.175 53.4633 158.466 54.819ZM286.917 54.5947C283.2 53.2516 279.392 52.0111 275.598 50.9086L276.162 49.0131C279.997 50.1277 283.847 51.3817 287.605 52.7398L286.917 54.5947ZM181.298 48.0954L180.852 46.1701C184.743 45.2894 188.721 44.5221 192.675 43.8879L192.996 45.8383C189.083 46.4652 185.147 47.2244 181.298 48.0954ZM264.061 47.9517C260.204 47.0932 256.266 46.3476 252.354 45.7351L252.668 43.7837C256.621 44.403 260.602 45.1568 264.5 46.0244L264.061 47.9517ZM204.816 44.3263L204.623 42.3605C208.593 41.9799 212.638 41.72 216.643 41.5883L216.709 43.5628C212.746 43.6931 208.745 43.9501 204.816 44.3263ZM240.529 44.2651C236.594 43.9019 232.591 43.6588 228.633 43.5426L228.692 41.5681C232.693 41.6858 236.738 41.9313 240.715 42.2983L240.529 44.2651Z" fill="#D0CDE1"/>
<path d="M216 92.8466C241.957 92.8466 263 72.0622 263 46.4233C263 20.7844 241.957 0 216 0C190.043 0 169 20.7844 169 46.4233C169 72.0622 190.043 92.8466 216 92.8466Z" fill="#00529B"/>
<path d="M398 219.276C423.957 219.276 445 198.492 445 172.853C445 147.214 423.957 126.429 398 126.429C372.043 126.429 351 147.214 351 172.853C351 198.492 372.043 219.276 398 219.276Z" fill="#00529B"/>
<path d="M341 412.871C366.957 412.871 388 392.087 388 366.448C388 340.809 366.957 320.025 341 320.025C315.043 320.025 294 340.809 294 366.448C294 392.087 315.043 412.871 341 412.871Z" fill="#00529B"/>
<path d="M115 420.773C140.957 420.773 162 399.989 162 374.35C162 348.711 140.957 327.926 115 327.926C89.0426 327.926 68 348.711 68 374.35C68 399.989 89.0426 420.773 115 420.773Z" fill="#00529B"/>
<path d="M47 219.276C72.9574 219.276 94 198.492 94 172.853C94 147.214 72.9574 126.429 47 126.429C21.0426 126.429 0 147.214 0 172.853C0 198.492 21.0426 219.276 47 219.276Z" fill="#00529B"/>
<path d="M236.141 42.7221H219.747C218.256 42.7221 216.827 42.1372 215.773 41.096C214.719 40.0549 214.126 38.6428 214.126 37.1703V20.9777C214.126 20.9169 214.114 20.8567 214.091 20.8006C214.067 20.7445 214.033 20.6935 213.989 20.6505C213.946 20.6075 213.894 20.5735 213.837 20.5502C213.78 20.527 213.72 20.515 213.658 20.515H202.885C200.897 20.515 198.991 21.2949 197.586 22.6831C196.18 24.0713 195.391 25.9541 195.391 27.9174V64.9292C195.391 66.8924 196.18 68.7752 197.586 70.1634C198.991 71.5517 200.897 72.3315 202.885 72.3315H229.115C231.103 72.3315 233.009 71.5517 234.414 70.1634C235.82 68.7752 236.609 66.8924 236.609 64.9292V43.1847C236.609 43.124 236.597 43.0638 236.574 43.0077C236.55 42.9516 236.516 42.9006 236.472 42.8576C236.429 42.8146 236.377 42.7806 236.32 42.7573C236.263 42.7341 236.203 42.7221 236.141 42.7221ZM225.368 61.228H206.632C206.135 61.228 205.659 61.033 205.307 60.686C204.956 60.3389 204.759 59.8682 204.759 59.3774C204.759 58.8866 204.956 58.4159 205.307 58.0689C205.659 57.7218 206.135 57.5268 206.632 57.5268H225.368C225.865 57.5268 226.341 57.7218 226.693 58.0689C227.044 58.4159 227.241 58.8866 227.241 59.3774C227.241 59.8682 227.044 60.3389 226.693 60.686C226.341 61.033 225.865 61.228 225.368 61.228ZM225.368 51.975H206.632C206.135 51.975 205.659 51.7801 205.307 51.433C204.956 51.086 204.759 50.6153 204.759 50.1245C204.759 49.6337 204.956 49.1629 205.307 48.8159C205.659 48.4688 206.135 48.2739 206.632 48.2739H225.368C225.865 48.2739 226.341 48.4688 226.693 48.8159C227.044 49.1629 227.241 49.6337 227.241 50.1245C227.241 50.6153 227.044 51.086 226.693 51.433C226.341 51.7801 225.865 51.975 225.368 51.975Z" fill="white"/>
<path d="M235.113 38.6265L218.273 21.9932C218.24 21.961 218.198 21.9391 218.153 21.9303C218.108 21.9214 218.061 21.926 218.018 21.9435C217.976 21.9609 217.939 21.9904 217.913 22.0282C217.888 22.0661 217.874 22.1107 217.874 22.1563V37.1703C217.874 37.6611 218.071 38.1318 218.422 38.4789C218.774 38.8259 219.25 39.0209 219.747 39.0209H234.948C234.994 39.0207 235.039 39.0071 235.077 38.9816C235.116 38.9562 235.146 38.9201 235.163 38.878C235.181 38.8358 235.185 38.7895 235.176 38.7447C235.168 38.7 235.145 38.6589 235.113 38.6265Z" fill="white"/>
<path d="M347.798 357.303C347.222 357.303 346.663 357.501 346.218 357.862C345.773 358.223 345.468 358.726 345.356 359.284C345.244 359.843 345.331 360.422 345.603 360.924C345.875 361.426 346.315 361.819 346.847 362.036C347.38 362.254 347.972 362.282 348.523 362.117C349.075 361.951 349.551 361.602 349.871 361.129C350.191 360.656 350.335 360.087 350.278 359.521C350.221 358.954 349.968 358.425 349.56 358.023C349.328 357.794 349.054 357.613 348.751 357.49C348.449 357.366 348.125 357.303 347.798 357.303Z" fill="white"/>
<path d="M361.665 347.465V347.456C361.586 347.115 361.412 346.801 361.162 346.552C360.913 346.303 360.598 346.128 360.253 346.046C357.472 345.376 353.097 346.09 348.249 348.007C343.587 349.798 339.321 352.466 335.689 355.863C334.697 356.837 333.776 357.879 332.932 358.981C331.066 358.854 329.196 359.151 327.466 359.849C322.077 362.191 320.538 368.185 320.128 370.646C320.069 370.996 320.092 371.355 320.196 371.694C320.3 372.033 320.482 372.345 320.728 372.603C320.973 372.862 321.276 373.061 321.612 373.185C321.948 373.31 322.309 373.356 322.666 373.32H322.678L328.681 372.673C328.688 372.748 328.696 372.817 328.703 372.881C328.78 373.603 329.106 374.278 329.627 374.791L332.556 377.686C333.075 378.201 333.758 378.524 334.489 378.6L334.69 378.621L334.036 384.542V384.554C334.005 384.855 334.034 385.16 334.121 385.45C334.209 385.74 334.353 386.01 334.547 386.245C334.74 386.479 334.978 386.674 335.247 386.818C335.517 386.962 335.812 387.052 336.117 387.084C336.189 387.091 336.261 387.095 336.333 387.096C336.463 387.096 336.592 387.085 336.72 387.064C339.226 386.666 345.292 385.165 347.657 379.814C348.358 378.11 348.659 376.271 348.539 374.436C349.659 373.604 350.718 372.694 351.707 371.712C355.145 368.159 357.849 363.978 359.669 359.404C361.6 354.67 362.327 350.317 361.665 347.465ZM351.674 363.585C350.907 364.343 349.93 364.859 348.866 365.069C347.802 365.278 346.7 365.172 345.697 364.762C344.695 364.353 343.838 363.659 343.235 362.768C342.632 361.878 342.309 360.83 342.309 359.759C342.308 358.687 342.629 357.64 343.232 356.749C343.834 355.858 344.69 355.163 345.692 354.752C346.694 354.342 347.797 354.234 348.861 354.442C349.925 354.651 350.902 355.166 351.67 355.923L351.674 355.927C352.702 356.928 353.285 358.29 353.296 359.715C353.307 361.141 352.744 362.512 351.732 363.527L351.674 363.585Z" fill="white"/>
<path d="M332.22 378.472C331.859 378.427 331.494 378.515 331.194 378.718C330.598 379.12 329.998 379.519 329.394 379.907C329.131 380.074 328.819 380.148 328.509 380.119C328.198 380.09 327.906 379.959 327.68 379.746C327.454 379.533 327.307 379.252 327.262 378.947C327.218 378.641 327.278 378.33 327.434 378.063L328.568 376.127C328.73 375.893 328.82 375.618 328.828 375.334C328.835 375.051 328.76 374.771 328.611 374.528C328.461 374.286 328.244 374.091 327.986 373.968C327.727 373.844 327.438 373.797 327.153 373.831C325.894 373.989 324.725 374.555 323.828 375.441C323.486 375.779 322.448 376.806 321.889 380.719C321.729 381.843 321.629 382.974 321.588 384.108C321.583 384.302 321.617 384.495 321.687 384.675C321.757 384.856 321.863 385.021 321.998 385.162C322.133 385.302 322.295 385.415 322.474 385.494C322.653 385.572 322.847 385.615 323.043 385.62C323.055 385.621 323.068 385.621 323.081 385.621H323.119C324.268 385.581 325.414 385.482 326.553 385.326C330.516 384.773 331.556 383.746 331.898 383.409C332.799 382.522 333.371 381.362 333.52 380.114C333.568 379.726 333.458 379.335 333.215 379.027C332.971 378.719 332.613 378.519 332.22 378.472Z" fill="white"/>
<path d="M98.8248 399.576H95.4195C94.7421 399.576 94.0925 399.31 93.6135 398.837C93.1346 398.364 92.8655 397.723 92.8655 397.054V381.918C92.8655 381.249 93.1346 380.607 93.6135 380.134C94.0925 379.661 94.7421 379.395 95.4195 379.395H98.8248C99.5021 379.395 100.152 379.661 100.631 380.134C101.11 380.607 101.379 381.249 101.379 381.918V397.054C101.379 397.723 101.11 398.364 100.631 398.837C100.152 399.31 99.5021 399.576 98.8248 399.576Z" fill="white"/>
<path d="M122.662 399.576H119.257C118.579 399.576 117.93 399.31 117.451 398.837C116.972 398.364 116.703 397.723 116.703 397.054V371.827C116.703 371.158 116.972 370.516 117.451 370.043C117.93 369.57 118.579 369.304 119.257 369.304H122.662C123.339 369.304 123.989 369.57 124.468 370.043C124.947 370.516 125.216 371.158 125.216 371.827V397.054C125.216 397.723 124.947 398.364 124.468 398.837C123.989 399.31 123.339 399.576 122.662 399.576Z" fill="white"/>
<path d="M134.581 399.576H131.175C130.498 399.576 129.848 399.31 129.369 398.837C128.89 398.364 128.621 397.723 128.621 397.054V360.055C128.621 359.386 128.89 358.744 129.369 358.271C129.848 357.798 130.498 357.532 131.175 357.532H134.581C135.258 357.532 135.908 357.798 136.386 358.271C136.865 358.744 137.135 359.386 137.135 360.055V397.054C137.135 397.723 136.865 398.364 136.386 398.837C135.908 399.31 135.258 399.576 134.581 399.576Z" fill="white"/>
<path d="M110.743 399.576H107.338C106.661 399.576 106.011 399.31 105.532 398.837C105.053 398.364 104.784 397.723 104.784 397.054V351.646C104.784 350.977 105.053 350.335 105.532 349.862C106.011 349.389 106.661 349.123 107.338 349.123H110.743C111.421 349.123 112.07 349.389 112.549 349.862C113.028 350.335 113.297 350.977 113.297 351.646V397.054C113.297 397.385 113.231 397.713 113.103 398.019C112.975 398.325 112.787 398.603 112.549 398.837C112.312 399.072 112.031 399.257 111.721 399.384C111.411 399.511 111.079 399.576 110.743 399.576Z" fill="white"/>
<path d="M400.252 171.637L397.819 169.233C397.261 168.682 396.506 168.372 395.718 168.37C394.93 168.368 394.173 168.674 393.613 169.222L376.698 184.641C376.077 185.184 375.697 185.946 375.64 186.763C375.622 187.169 375.689 187.574 375.837 187.953C375.984 188.332 376.21 188.677 376.498 188.966L380.132 192.595L380.139 192.602C380.7 193.155 381.46 193.466 382.253 193.469H382.363C382.774 193.446 383.176 193.343 383.546 193.167C383.917 192.991 384.248 192.744 384.522 192.441L400.241 175.81C400.803 175.26 401.12 174.512 401.124 173.731C401.127 172.95 400.816 172.2 400.259 171.645L400.252 171.637Z" fill="white"/>
<path d="M419.804 166.778L419.775 166.75L416.582 163.628C416.395 163.444 416.173 163.298 415.929 163.199C415.684 163.1 415.422 163.05 415.158 163.052C414.731 163.052 414.314 163.186 413.967 163.433C413.967 163.393 413.972 163.355 413.975 163.321C414.104 162.514 413.932 161.69 413.49 160.999C412.787 160.063 412.015 159.179 411.18 158.354L411.172 158.347C408.838 156.135 406.095 154.387 403.092 153.198C401.522 152.562 399.842 152.236 398.146 152.237C395.95 152.217 393.816 152.955 392.112 154.324C391.627 154.782 391.185 155.281 390.791 155.817C390.603 156.074 390.503 156.384 390.508 156.701C390.512 157.018 390.62 157.325 390.815 157.577C391.01 157.828 391.282 158.011 391.591 158.097C391.9 158.184 392.229 158.17 392.529 158.057C392.79 157.961 393.057 157.88 393.328 157.815C393.893 157.697 394.472 157.661 395.047 157.709C396.24 157.832 397.383 158.246 398.373 158.914C398.928 159.376 399.37 159.956 399.665 160.611C399.959 161.266 400.1 161.979 400.074 162.696C399.661 163.86 399.028 164.936 398.211 165.869C397.993 166.153 397.887 166.505 397.911 166.86C397.936 167.216 398.091 167.55 398.346 167.802L401.552 170.969C401.822 171.236 402.184 171.39 402.566 171.401C402.947 171.411 403.318 171.277 403.602 171.026C404.509 170.226 405.89 169.02 406.372 168.725C406.785 168.452 407.252 168.27 407.742 168.191C408.107 168.156 408.475 168.232 408.794 168.41C408.796 168.426 408.794 168.442 408.789 168.457C408.784 168.472 408.776 168.486 408.765 168.498L408.596 168.657L408.568 168.683C408.191 169.053 407.979 169.557 407.978 170.082C407.977 170.607 408.187 171.111 408.562 171.484L408.572 171.493L411.765 174.614C411.952 174.798 412.174 174.944 412.418 175.043C412.663 175.141 412.924 175.191 413.188 175.19C413.719 175.19 414.228 174.985 414.607 174.619L419.778 169.574C419.796 169.556 419.814 169.538 419.83 169.519C420.177 169.144 420.367 168.652 420.363 168.144C420.358 167.635 420.158 167.148 419.804 166.778Z" fill="white"/>
<path d="M54.4623 170.089C54.0934 170.089 53.7327 169.981 53.4259 169.778C53.1191 169.576 52.88 169.288 52.7388 168.951C52.5976 168.614 52.5607 168.244 52.6327 167.887C52.7046 167.529 52.8823 167.201 53.1432 166.943L57.4207 162.718L53.1432 158.493C52.7933 158.147 52.5968 157.679 52.5968 157.19C52.5968 156.701 52.7933 156.232 53.1432 155.887C53.493 155.541 53.9676 155.347 54.4623 155.347C54.9571 155.347 55.4316 155.541 55.7815 155.887L61.3783 161.415C61.5515 161.586 61.689 161.789 61.7827 162.013C61.8765 162.236 61.9247 162.476 61.9247 162.718C61.9247 162.96 61.8765 163.2 61.7827 163.423C61.689 163.647 61.5515 163.85 61.3783 164.021L55.7815 169.549C55.6085 169.72 55.4028 169.856 55.1765 169.949C54.9501 170.042 54.7074 170.089 54.4623 170.089Z" fill="white"/>
<path d="M24.6129 175.617C24.3679 175.617 24.1253 175.569 23.899 175.477C23.6726 175.384 23.467 175.248 23.2937 175.077C23.1205 174.906 22.9831 174.703 22.8893 174.479C22.7956 174.256 22.7473 174.016 22.7473 173.774V171.931C22.7619 169.005 23.9452 166.202 26.04 164.131C28.1349 162.061 30.9721 160.891 33.9353 160.875H58.1936C58.6883 160.875 59.1629 161.069 59.5127 161.415C59.8626 161.761 60.0592 162.229 60.0592 162.718C60.0592 163.207 59.8626 163.675 59.5127 164.021C59.1629 164.366 58.6883 164.561 58.1936 164.561H33.9409C31.9644 164.572 30.0722 165.353 28.6752 166.734C27.2781 168.115 26.4887 169.985 26.4785 171.937V173.774C26.4785 174.016 26.4303 174.256 26.3365 174.479C26.2428 174.703 26.1053 174.906 25.9321 175.077C25.7589 175.248 25.5532 175.384 25.3269 175.477C25.1005 175.569 24.8579 175.617 24.6129 175.617Z" fill="white"/>
<path d="M39.5377 190.358C39.2926 190.359 39.0499 190.311 38.8235 190.219C38.5972 190.126 38.3915 189.99 38.2185 189.819L32.6217 184.291C32.4485 184.119 32.3111 183.916 32.2173 183.693C32.1235 183.469 32.0753 183.23 32.0753 182.988C32.0753 182.746 32.1235 182.506 32.2173 182.282C32.3111 182.059 32.4485 181.856 32.6217 181.685L38.2185 176.157C38.5685 175.812 39.0428 175.618 39.5373 175.618C40.0318 175.618 40.5059 175.812 40.8556 176.158C41.2052 176.503 41.4017 176.971 41.402 177.46C41.4022 177.948 41.2061 178.417 40.8568 178.762L36.5793 182.988L40.8568 187.213C41.1177 187.47 41.2954 187.799 41.3673 188.156C41.4393 188.514 41.4024 188.884 41.2612 189.221C41.12 189.558 40.8809 189.845 40.5741 190.048C40.2673 190.25 39.9066 190.358 39.5377 190.358Z" fill="white"/>
<path d="M35.8064 184.83C35.3116 184.83 34.8371 184.636 34.4873 184.291C34.1374 183.945 33.9409 183.476 33.9409 182.988C33.9409 182.499 34.1374 182.03 34.4873 181.685C34.8371 181.339 35.3116 181.145 35.8064 181.145H60.0591C62.0356 181.133 63.9277 180.352 65.3248 178.971C66.7219 177.59 67.5112 175.721 67.5214 173.769V171.931C67.5214 171.443 67.718 170.974 68.0678 170.628C68.4177 170.283 68.8922 170.089 69.387 170.089C69.8818 170.089 70.3563 170.283 70.7062 170.628C71.0561 170.974 71.2526 171.443 71.2526 171.931V173.774C71.238 176.701 70.0547 179.504 67.9599 181.574C65.8651 183.644 63.0278 184.814 60.0646 184.83L35.8064 184.83Z" fill="white"/>
</g>
<defs>
<clipPath id="clip0_9_91">
<rect width="740.84" height="601" fill="white"/>
</clipPath>
</defs>
</svg>
