<svg width="100" height="100" viewBox="0 0 100 100" fill="none" xmlns="http://www.w3.org/2000/svg">
<circle cx="50" cy="50" r="50" fill="#F6F6F6"/>
<path d="M67.7136 32.2751C65.41 29.9599 62.6663 28.1243 59.6423 26.8753C56.6183 25.6262 53.3747 24.9888 50.1005 25.0001C36.3819 25.0001 25.201 36.1251 25.201 49.7751C25.201 54.1501 26.3568 58.4001 28.5176 62.15L25 75L38.191 71.55C41.8342 73.525 45.9296 74.575 50.1005 74.575C63.8191 74.575 75 63.45 75 49.8001C75 43.1751 72.4121 36.9501 67.7136 32.2751ZM50.1005 70.375C46.3819 70.375 42.7387 69.375 39.5477 67.5L38.794 67.05L30.9548 69.1L33.0402 61.5L32.5377 60.725C30.4717 57.4425 29.3747 53.6482 29.3719 49.7751C29.3719 38.4251 38.6683 29.1751 50.0754 29.1751C55.603 29.1751 60.804 31.3251 64.6985 35.2251C66.6268 37.135 68.155 39.4068 69.1945 41.9087C70.2339 44.4106 70.7639 47.0929 70.7538 49.8001C70.804 61.15 61.5075 70.375 50.1005 70.375ZM61.4573 54.9751C60.8291 54.6751 57.7638 53.1751 57.2111 52.9501C56.6332 52.7501 56.2312 52.6501 55.804 53.2501C55.3769 53.8751 54.196 55.2751 53.8442 55.6751C53.4925 56.1001 53.1156 56.1501 52.4874 55.8251C51.8593 55.5251 49.8492 54.8501 47.4874 52.7501C45.6281 51.1001 44.397 49.0751 44.0201 48.4501C43.6683 47.8251 43.9698 47.5001 44.2965 47.1751C44.5729 46.9001 44.9246 46.4501 45.2261 46.1001C45.5276 45.7501 45.6533 45.4751 45.8543 45.0751C46.0553 44.6501 45.9548 44.3001 45.804 44.0001C45.6533 43.7001 44.397 40.6501 43.8945 39.4001C43.392 38.2001 42.8643 38.3501 42.4874 38.3251H41.2814C40.8543 38.3251 40.201 38.4751 39.6231 39.1001C39.0703 39.7251 37.4623 41.2251 37.4623 44.2751C37.4623 47.3251 39.6985 50.2751 40 50.6751C40.3015 51.1001 44.397 57.3501 50.6281 60.025C52.1105 60.675 53.2663 61.05 54.1709 61.325C55.6533 61.8 57.01 61.725 58.0905 61.575C59.2965 61.4 61.7839 60.075 62.2864 58.625C62.8141 57.1751 62.8141 55.9501 62.6382 55.6751C62.4623 55.4001 62.0854 55.2751 61.4573 54.9751Z" fill="#989898"/>
</svg>
